<?xml version="1.0" encoding="UTF-8"?>
<svg xmlns="http://www.w3.org/2000/svg" width="155" height="155">
 <title>S Shuttle</title>
 <circle fill="#FFCC00" stroke="#000" stroke-width="5" cx="77.5" cy="77.5" r="75"/>
 <path fill="#000" d="M 42.943381,92.343111 59.64188,90.719646 q 1.507503,8.40723 6.087994,12.349934 4.638472,3.9427 12.465894,3.9427 8.291268,0 12.465893,-3.47886 4.232605,-3.53683 4.232605,-8.233283 0,-3.015007 -1.797407,-5.102319 Q 91.357432,88.052525 86.950883,86.487041 83.935877,85.443384 73.20941,82.776263 59.409956,79.35539 53.84379,74.369033 46.016369,67.353344 46.016369,57.264668 q 0,-6.493861 3.652796,-12.118008 3.710778,-5.682128 10.610505,-8.639154 6.957708,-2.957026 16.75648,-2.957026 16.002728,0 24.06207,7.015689 8.11733,7.015688 8.52319,18.72783 L 92.459069,60.047751 Q 91.357432,53.495909 87.704635,50.654845 84.109819,47.7558 76.862207,47.7558 q -7.479536,0 -11.712142,3.072988 -2.725102,1.97135 -2.725102,5.276262 0,3.015006 2.55116,5.1603 3.24693,2.725102 15.770804,5.682128 12.523874,2.957025 18.495907,6.145975 6.030016,3.130968 9.392906,8.639154 3.42087,5.450204 3.42087,13.509549 0,7.305594 -4.05866,13.683494 -4.05866,6.3779 -11.480218,9.50887 -7.421555,3.07298 -18.495907,3.07298 -16.11869,0 -24.757844,-7.42155 -8.639154,-7.47954 -10.3206,-21.742839 z"/>
</svg>