<svg xmlns="http://www.w3.org/2000/svg" xmlns:xlink="http://www.w3.org/1999/xlink" viewBox="0 0 1084 1113"><defs><style>.cls-1{fill:url(#linear-gradient);}</style><linearGradient id="linear-gradient" x1="-36.78" y1="834.35" x2="866.17" y2="389.16" gradientUnits="userSpaceOnUse"><stop offset="0" stop-color="#03ffec"/><stop offset="0.92" stop-color="#2aa3f6"/></linearGradient></defs><g id="Layer_2" data-name="Layer 2"><g id="Layer_1-2" data-name="Layer 1"><path class="cls-1" d="M1084,369.48c-12.87-181-164.36-161.63-356.42-161.63C601.92,207.85,549.32,89,527.55,0H12A12.1,12.1,0,0,0,0,12.14V1051.46a111.89,111.89,0,0,1,13.71-.85c21.67,0,44.66,3.59,65.4,17.76,19.89,13.6,36.84,45,58.68,42.88,13-1.23,25-14.46,37-25.17,54.86-48.79,118.38-46.91,172.65,5.12,10.11,9.69,20.3,21.25,31.3,21.78,12.05.58,23.3-12.12,34.41-22.6,54.62-51.51,118.35-52.73,173.36-3.32,11.4,10.25,22.78,22.75,35.06,24.19,16.35,1.92,31.65-15.9,46.89-29.31,41.27-36.32,87.86-41.72,130.59-15.15,20.55,12.78,40.29,32.73,61.38,39.81,43.24,14.52,85.75-57.33,131.66-56.5,31.83.58,63,15.91,91.9,43.32Z"/></g></g></svg>